<svg width="191" height="203" viewBox="0 0 191 203" fill="none" xmlns="http://www.w3.org/2000/svg">
<g clip-path="url(#clip0_92_160)">
<g clip-path="url(#paint0_diamond_92_160_clip_path)" data-figma-skip-parse="true"><g transform="matrix(0 -0.141 0.13466 0 97 187)"><rect x="0" y="0" width="1283.48" height="690.626" fill="url(#paint0_diamond_92_160)" opacity="1" shape-rendering="crispEdges"/><rect x="0" y="0" width="1283.48" height="690.626" transform="scale(1 -1)" fill="url(#paint0_diamond_92_160)" opacity="1" shape-rendering="crispEdges"/><rect x="0" y="0" width="1283.48" height="690.626" transform="scale(-1 1)" fill="url(#paint0_diamond_92_160)" opacity="1" shape-rendering="crispEdges"/><rect x="0" y="0" width="1283.48" height="690.626" transform="scale(-1)" fill="url(#paint0_diamond_92_160)" opacity="1" shape-rendering="crispEdges"/></g></g><path d="M97 7.02985L176.674 186.224H17.3257L97 7.02985Z" data-figma-gradient-fill="{&#34;type&#34;:&#34;GRADIENT_DIAMOND&#34;,&#34;stops&#34;:[{&#34;color&#34;:{&#34;r&#34;:0.0,&#34;g&#34;:0.0,&#34;b&#34;:0.0,&#34;a&#34;:1.0},&#34;position&#34;:0.11538461595773697},{&#34;color&#34;:{&#34;r&#34;:0.79326921701431274,&#34;g&#34;:0.79326921701431274,&#34;b&#34;:0.79326921701431274,&#34;a&#34;:1.0},&#34;position&#34;:1.0}],&#34;stopsVar&#34;:[{&#34;color&#34;:{&#34;r&#34;:0.0,&#34;g&#34;:0.0,&#34;b&#34;:0.0,&#34;a&#34;:1.0},&#34;position&#34;:0.11538461595773697},{&#34;color&#34;:{&#34;r&#34;:0.79326921701431274,&#34;g&#34;:0.79326921701431274,&#34;b&#34;:0.79326921701431274,&#34;a&#34;:1.0},&#34;position&#34;:1.0}],&#34;transform&#34;:{&#34;m00&#34;:-1.4028305562541546e-14,&#34;m01&#34;:269.32077026367188,&#34;m02&#34;:-37.660381317138672,&#34;m10&#34;:-282.0,&#34;m11&#34;:-5.2028291008809902e-08,&#34;m12&#34;:328.0},&#34;opacity&#34;:1.0,&#34;blendMode&#34;:&#34;NORMAL&#34;,&#34;visible&#34;:true}"/>
<mask id="mask0_92_160" style="mask-type:alpha" maskUnits="userSpaceOnUse" x="17" y="17" width="160" height="180">
<path d="M97 17.0299L176.674 196.224H17.3257L97 17.0299Z" fill="#D9D9D9"/>
</mask>
<g mask="url(#mask0_92_160)">
<path d="M97 121L151.56 243.25H42.4404L97 121Z" fill="#D9D9D9"/>
</g>
</g>
<defs>
<clipPath id="paint0_diamond_92_160_clip_path"><path d="M97 7.02985L176.674 186.224H17.3257L97 7.02985Z"/></clipPath><linearGradient id="paint0_diamond_92_160" x1="0" y1="0" x2="500" y2="500" gradientUnits="userSpaceOnUse">
<stop offset="0.115385"/>
<stop offset="1" stop-color="#CACACA"/>
</linearGradient>
<clipPath id="clip0_92_160">
<rect width="191" height="203" fill="white"/>
</clipPath>
</defs>
</svg>
